<svg viewBox="0 0 512 512" xmlns="http://www.w3.org/2000/svg" xml:space="preserve" style="fill-rule:evenodd;clip-rule:evenodd;stroke-linejoin:round;stroke-miterlimit:2">
  <desc>Traced by Dogo314</desc>
  <path style="fill:none" d="M541 0h512v512H541z" transform="translate(-541)"/>
  <path d="M1486 0h130v273l-256 222-256-222V0h130v112.877l-30 31.072v20l30-5.914v34.222l-30 31.072v20l30-5.913v34.222L1204 303v19.71l52.403-10.33L1360 402l126-109v-25.877l30-31.072v-20l-30 5.914v-34.222l30-31.072v-20l-30 5.913v-34.222l30-31.072v-20l-30 5.914z" style="fill:#009880" transform="translate(-1104 8.5)"/>
  <path d="M1454 36.139v34l-188 37.058v-34zm0 236.582V282l-37.198 32.053-92.455 18.225-32.111-27.671zm0-78.86v34l-188 37.057v-34zm0-78.861v34l-188 37.058v-34z" style="fill:#80f8e0" transform="translate(-1104 8.5)"/>
</svg>
