<svg viewBox="0 0 512 512" xmlns="http://www.w3.org/2000/svg" xml:space="preserve" style="fill-rule:evenodd;clip-rule:evenodd;stroke-linejoin:round;stroke-miterlimit:2">
  <desc>Traced by Dogo314</desc>
  <path style="fill:none" d="M541 0h512v512H541z" transform="translate(-541)"/>
  <path d="M1342.652 886.582a2.312 2.312 0 0 1-3.742 1.815l-99.971-78.695c-10.757-8.468-13.363-23.703-6.032-35.265l104.552-164.888a26.7 26.7 0 0 1 5.193-5.991zm5.338 159.829h-116.101l-96.084-162.808c25.355 0 212.185 148.129 212.185 162.808m24.02 0c0-14.679 186.83-162.808 212.185-162.808l-96.084 162.808z" style="fill:#bdd029" transform="translate(-763.112 -360.125)scale(.74935)"/>
  <path d="m1360 552.239 221.496 127.88v255.762L1360 1063.761l-221.496-127.88V680.119zm195.737 371.383a4 4 0 0 0 1.999-3.447l.939-225.388a4 4 0 0 0-2.429-3.695l-12.77-5.455a4 4 0 0 0-4.985 1.595c-34.36 56.287-72.01 117.556-101.67 202.004a5.998 5.998 0 0 1-10.858 1.015l-7.477-12.95a10 10 0 0 1-.625-8.712l42.029-105.131c8.378-20.957-.459-44.854-20.456-55.318l-134.951-70.617a43.998 43.998 0 0 0-64.362 37.159l-6.319 152.18c-.937 22.55 15.341 42.152 37.679 45.374l112.06 16.168a10 10 0 0 1 7.232 4.897s3.818 6.613 7.473 12.953a5.996 5.996 0 0 1-6.303 8.888c-87.965-16.533-159.85-14.561-225.777-12.949a4 4 0 0 0-3.874 3.521l-1.661 13.786a4 4 0 0 0 1.986 3.951l195.661 111.881a4 4 0 0 0 3.985-.008z" style="fill:#5da95d" transform="rotate(30 1838.045 -1528.092)"/>
</svg>
