<svg viewBox="0 0 512 512" xmlns="http://www.w3.org/2000/svg" xml:space="preserve" style="fill-rule:evenodd;clip-rule:evenodd;stroke-linejoin:round;stroke-miterlimit:2">
  <desc>Traced by Dogo314</desc>
  <path style="fill:none" d="M0 0h512v512H0z"/>
  <path d="M95.814 403.265C64.773 367.197 46 320.273 46 269V63h206c51.273 0 98.197 18.773 134.265 49.814l-26.248 26.248C330.721 114.675 293.061 100 252 100c-93.274 0-169 75.726-169 169 0 41.061 14.675 78.721 39.062 108.017zm312.372-268.53C439.227 170.803 458 217.727 458 269v206H252c-51.273 0-98.197-18.773-134.265-49.814l26.248-26.248C173.279 423.325 210.939 438 252 438c93.274 0 169-75.726 169-169 0-41.061-14.675-78.721-39.062-108.017z" style="fill:#b82888" transform="translate(-57.165 -78.291)scale(1.24272)"/>
  <path d="M312.887 153a131.3 131.3 0 0 1 20.12 13.073 132 132 0 0 1 21.92 21.92l.073.093c17.535 22.283 28 50.386 28 80.914s-10.465 58.631-28 80.914a132 132 0 0 1-7.846 9.086c-23.885 25.243-57.694 41-95.154 41-30.57 0-58.709-10.494-81.007-28.073a132 132 0 0 1-21.92-21.92l-.073-.093c-17.535-22.283-28-50.386-28-80.914s10.465-58.631 28-80.914A131.7 131.7 0 0 1 191.113 153c18.196-9.578 38.913-15 60.887-15s42.691 5.422 60.887 15M195 269c0 10.103 2.634 19.595 7.252 27.827a57.35 57.35 0 0 0 21.921 21.921C232.405 323.366 241.897 326 252 326c31.459 0 57-25.541 57-57 0-10.103-2.634-19.595-7.252-27.827a57.35 57.35 0 0 0-21.921-21.921C271.595 214.634 262.103 212 252 212c-31.459 0-57 25.541-57 57" style="fill:#f88cf0" transform="translate(-57.165 -78.291)scale(1.24272)"/>
</svg>
