<svg viewBox="0 0 512 512" xmlns="http://www.w3.org/2000/svg" xml:space="preserve" style="fill-rule:evenodd;clip-rule:evenodd;stroke-linejoin:round;stroke-miterlimit:2">
  <desc>Traced by Dogo314</desc>
  <path style="fill:none" d="M541 0h512v512H541z" transform="translate(-541)"/>
  <path d="M1854.298 296.296C1843.98 306.614 1829.73 313 1814 313c-31.459 0-57-25.541-57-57s25.541-57 57-57c15.73 0 29.98 6.386 40.298 16.704l.008-.008L1894.61 256l-40.304 40.304zM1924 227.449V124.773h112.773C2109.199 124.773 2168 183.574 2168 256s-58.801 131.227-131.227 131.227H1924V284.551l28.724 28.725.012-.012C1967.397 327.926 1987.647 337 2010 337c44.705 0 81-36.295 81-81s-36.295-81-81-81c-22.353 0-42.603 9.074-57.264 23.736l-.012-.012z" style="fill:#00a4c8" transform="translate(-1656)"/>
  <path d="M1900 284.551v102.676h-112.773C1714.801 387.227 1656 328.426 1656 256s58.801-131.227 131.227-131.227H1900v102.676l-28.724-28.725-.012.012C1856.603 184.074 1836.353 175 1814 175c-44.705 0-81 36.295-81 81s36.295 81 81 81c22.353 0 42.603-9.074 57.264-23.736l.012.012zm69.702 11.745-.008.008L1929.39 256l40.304-40.304.008.008C1980.02 205.386 1994.27 199 2010 199c31.459 0 57 25.541 57 57s-25.541 57-57 57c-15.73 0-29.98-6.386-40.298-16.704" style="fill:#68e0e8" transform="translate(-1656)"/>
</svg>
